<svg width="32" height="32" viewBox="0 0 32 32" fill="none" xmlns="http://www.w3.org/2000/svg">
  <rect width="32" height="32" rx="8" fill="#1A1A1A"/>
  <path d="M16 6C11.5817 6 8 9.58172 8 14C8 17.5 10 20.5 13 21.5V25H19V21.5C22 20.5 24 17.5 24 14C24 9.58172 20.4183 6 16 6Z" fill="#D4AF37"/>
  <path d="M13 13H14V14H13V13Z" fill="#1A1A1A"/>
  <path d="M18 13H19V14H18V13Z" fill="#1A1A1A"/>
  <path d="M15 17H17V18H15V17Z" fill="#1A1A1A"/>
  <path d="M16 21V23" stroke="#D4AF37" stroke-width="2" stroke-linecap="round"/>
  <path d="M6 14C6 11 8 8 11 7" stroke="#D4AF37" stroke-width="1.5" stroke-linecap="round"/>
  <path d="M26 14C26 11 24 8 21 7" stroke="#D4AF37" stroke-width="1.5" stroke-linecap="round"/>
</svg>